<?xml version="1.0" encoding="utf-8"?>
<svg xmlns="http://www.w3.org/2000/svg" viewBox="10.32 5.13 70.76 70.76" width="70.76px" height="70.76px">
    <defs>
        <style type="text/css">
            .st0{fill:#FFFFFF;}
        </style>
    </defs>
    <path class="st0" d="M81.08,40.51c0-19.54-15.84-35.38-35.38-35.38c-19.54,0-35.38,15.84-35.38,35.38 c0,19.54,15.84,35.38,35.38,35.38c6.65,0,12.63-1.6,17.94-4.79c0.35-0.27,0.42-0.68,0.41-1.06c-0.02-1.69-3.73-7.1-5.22-9.37 l-0.23,0.22c0,0,0.23-0.22,0.23-0.22c-7.39,4.7-13.64,0.9-18.3-3.77c5.59-1.75,13.26-1.07,16.99,2.09c0,0,0.24,0.1-0.07-0.22 c-5.8-5.81,1.89-12.56,2.26-17.38c4.69,2.82,5.01,10.3,1.64,16.56c-0.11,0.19,1.68,5.08,3.29,6.65c1.59,1.7,3.33,3.15,4.2,2.58 c0.02-0.01,0.12-0.08,0.13-0.08l0,0C76.65,60.6,81.08,51.35,81.08,40.51z M36.06,45.32c7.04-1.08,12.56,2.79,16.79,7l0,0.03 C44.18,57.12,39.14,51.13,36.06,45.32z M48.06,41.21c-0.92-2.27-3.48-4.84-3.91-8.57c-0.36-3.08,0.02-7.88-2.54-12.45 c2.12,1.11,5.43,4.91,6.52,7.13C51.19,33.59,47.61,36.92,48.06,41.21z M41.76,33.08c-1.89-1.59-4.09-2.08-6.02-3.79 c-3.27-2.91-2.32-6.5-6.36-10.96c2.99,0.96,7.96,3.28,9.49,4.63C41.77,25.53,41.95,28.48,41.76,33.08z M48.1,45.74 c-2.86-3-8.02-2.92-11.26-5.5c-3.21-2.56-4.1-7.21-7.73-9.55C37.94,30.47,44.48,39.17,48.1,45.74z M56.96,42.99 c-0.47,2-2.71,4.38-3.15,6.66c0,0-4.19-6.36-3.56-10.68c0.43-2.96,2.54-5.76,2.02-9.23c1.62,2.41,3.85,5.83,4.41,7.29 C57.42,38.99,57.51,40.63,56.96,42.99z M68.25,64.56c-0.63-0.4-1.14-0.96-1.59-1.61c0.25-0.23,0.49-0.46,0.73-0.7 c5.56-5.56,8.99-13.23,8.99-21.71c0-8.48-3.43-16.15-8.99-21.72c-5.56-5.56-13.23-8.99-21.71-8.99c-8.48,0-16.15,3.44-21.72,8.99 c-5.56,5.56-8.99,13.23-8.99,21.72c0,8.48,3.44,16.15,8.99,21.71c5.56,5.56,13.23,8.99,21.72,8.99c5.24,0,10.16-1.32,14.47-3.63 c0.47,0.58,0.78,1.28,1,2.03c-4.61,2.46-9.87,3.86-15.46,3.86c-18.21,0-32.98-14.76-32.98-32.98c0-18.21,14.76-32.98,32.98-32.98 c18.21,0,32.98,14.76,32.98,32.98C78.66,50.02,74.65,58.55,68.25,64.56z" style="fill: rgb(2, 8, 112);"/>
</svg>