<?xml version="1.0" encoding="utf-8"?>
<svg xmlns="http://www.w3.org/2000/svg" viewBox="12.666 75.59 70.76 70.76" width="70.76px" height="70.76px">
    <path class="st0" d="M 83.426 110.97 C 83.426 91.43 67.586 75.59 48.046 75.59 C 28.506 75.59 12.666 91.43 12.666 110.97 C 12.666 130.51 28.506 146.35 48.046 146.35 C 54.696 146.35 60.676 144.75 65.986 141.56 C 66.336 141.29 66.406 140.88 66.396 140.5 C 66.376 138.81 62.666 133.4 61.176 131.13 L 60.946 131.35 C 60.946 131.35 61.176 131.13 61.176 131.13 C 53.786 135.83 47.536 132.03 42.876 127.36 C 48.466 125.61 56.136 126.29 59.866 129.45 C 59.866 129.45 60.106 129.55 59.796 129.23 C 53.996 123.42 61.686 116.67 62.056 111.85 C 66.746 114.67 67.066 122.15 63.696 128.41 C 63.586 128.6 65.376 133.49 66.986 135.06 C 68.576 136.76 70.316 138.21 71.186 137.64 C 71.206 137.63 71.306 137.56 71.316 137.56 C 78.996 131.06 83.426 121.81 83.426 110.97 Z M 38.406 115.78 C 45.446 114.7 50.966 118.57 55.196 122.78 L 55.196 122.81 C 46.526 127.58 41.486 121.59 38.406 115.78 Z M 50.406 111.67 C 49.486 109.4 46.926 106.83 46.496 103.1 C 46.136 100.02 46.516 95.22 43.956 90.65 C 46.076 91.76 49.386 95.56 50.476 97.78 C 53.536 104.05 49.956 107.38 50.406 111.67 Z M 44.106 103.54 C 42.216 101.95 40.016 101.46 38.086 99.75 C 34.816 96.84 35.766 93.25 31.726 88.79 C 34.716 89.75 39.686 92.07 41.216 93.42 C 44.116 95.99 44.296 98.94 44.106 103.54 Z M 50.446 116.2 C 47.586 113.2 42.426 113.28 39.186 110.7 C 35.976 108.14 35.086 103.49 31.456 101.15 C 40.286 100.93 46.826 109.63 50.446 116.2 Z M 59.306 113.45 C 58.836 115.45 56.596 117.83 56.156 120.11 C 56.156 120.11 51.966 113.75 52.596 109.43 C 53.026 106.47 55.136 103.67 54.616 100.2 C 56.236 102.61 58.466 106.03 59.026 107.49 C 59.766 109.45 59.856 111.09 59.306 113.45 Z M 70.596 135.02 C 69.966 134.62 69.456 134.06 69.006 133.41 C 69.256 133.18 69.496 132.95 69.736 132.71 C 75.296 127.15 78.726 119.48 78.726 111 C 78.726 102.52 75.296 94.85 69.736 89.28 C 64.176 83.72 56.506 80.29 48.026 80.29 C 39.546 80.29 31.876 83.73 26.306 89.28 C 20.746 94.84 17.316 102.51 17.316 111 C 17.316 119.48 20.756 127.15 26.306 132.71 C 31.866 138.27 39.536 141.7 48.026 141.7 C 53.266 141.7 58.186 140.38 62.496 138.07 C 62.966 138.65 63.276 139.35 63.496 140.1 C 58.886 142.56 53.626 143.96 48.036 143.96 C 29.826 143.96 15.056 129.2 15.056 110.98 C 15.056 92.77 29.816 78 48.036 78 C 66.246 78 81.016 92.76 81.016 110.98 C 81.006 120.48 76.996 129.01 70.596 135.02 Z" style=""/>
</svg>